<mxfile host="app.diagrams.net" modified="2021-05-07T02:51:23.084Z" agent="5.0 (Windows NT 6.1; Win64; x64) AppleWebKit/537.36 (KHTML, like Gecko) Chrome/90.0.4430.93 Safari/537.36" etag="8_lvk07LSSQTHFpzvkfW" version="14.6.10" type="github">
  <diagram id="uNyh4qqiDuLtp65WveNB" name="第 1 页">
    <mxGraphModel dx="1673" dy="829" grid="0" gridSize="10" guides="1" tooltips="1" connect="1" arrows="0" fold="1" page="1" pageScale="1" pageWidth="827" pageHeight="1169" background="none" math="0" shadow="0">
      <root>
        <mxCell id="0" />
        <mxCell id="1" parent="0" />
        <mxCell id="0tJtxi1fCtbkk7B83Ru5-3" value="" style="edgeStyle=orthogonalEdgeStyle;rounded=0;orthogonalLoop=1;jettySize=auto;html=1;" edge="1" parent="1" source="0tJtxi1fCtbkk7B83Ru5-1" target="0tJtxi1fCtbkk7B83Ru5-2">
          <mxGeometry relative="1" as="geometry" />
        </mxCell>
        <mxCell id="0tJtxi1fCtbkk7B83Ru5-15" style="edgeStyle=orthogonalEdgeStyle;rounded=0;orthogonalLoop=1;jettySize=auto;html=1;entryX=1;entryY=0.5;entryDx=0;entryDy=0;fontFamily=Times New Roman;fontSize=18;" edge="1" parent="1" source="0tJtxi1fCtbkk7B83Ru5-1" target="0tJtxi1fCtbkk7B83Ru5-10">
          <mxGeometry relative="1" as="geometry">
            <Array as="points">
              <mxPoint x="303" y="150" />
              <mxPoint x="303" y="645" />
            </Array>
          </mxGeometry>
        </mxCell>
        <mxCell id="0tJtxi1fCtbkk7B83Ru5-1" value="输入：X" style="rounded=0;whiteSpace=wrap;html=1;fontFamily=Times New Roman;fontSize=18;" vertex="1" parent="1">
          <mxGeometry x="120" y="120" width="120" height="60" as="geometry" />
        </mxCell>
        <mxCell id="0tJtxi1fCtbkk7B83Ru5-5" value="" style="edgeStyle=orthogonalEdgeStyle;rounded=0;orthogonalLoop=1;jettySize=auto;html=1;" edge="1" parent="1" source="0tJtxi1fCtbkk7B83Ru5-2" target="0tJtxi1fCtbkk7B83Ru5-4">
          <mxGeometry relative="1" as="geometry" />
        </mxCell>
        <mxCell id="0tJtxi1fCtbkk7B83Ru5-2" value="隐藏层" style="rounded=0;whiteSpace=wrap;html=1;fontFamily=Times New Roman;fontSize=18;" vertex="1" parent="1">
          <mxGeometry x="120" y="215" width="120" height="60" as="geometry" />
        </mxCell>
        <mxCell id="0tJtxi1fCtbkk7B83Ru5-7" value="" style="edgeStyle=orthogonalEdgeStyle;rounded=0;orthogonalLoop=1;jettySize=auto;html=1;" edge="1" parent="1" source="0tJtxi1fCtbkk7B83Ru5-4" target="0tJtxi1fCtbkk7B83Ru5-6">
          <mxGeometry relative="1" as="geometry" />
        </mxCell>
        <mxCell id="0tJtxi1fCtbkk7B83Ru5-4" value="relu激活层" style="rounded=0;whiteSpace=wrap;html=1;fontSize=18;" vertex="1" parent="1">
          <mxGeometry x="120" y="310" width="120" height="60" as="geometry" />
        </mxCell>
        <mxCell id="0tJtxi1fCtbkk7B83Ru5-9" value="" style="edgeStyle=orthogonalEdgeStyle;rounded=0;orthogonalLoop=1;jettySize=auto;html=1;" edge="1" parent="1" source="0tJtxi1fCtbkk7B83Ru5-6" target="0tJtxi1fCtbkk7B83Ru5-8">
          <mxGeometry relative="1" as="geometry" />
        </mxCell>
        <mxCell id="0tJtxi1fCtbkk7B83Ru5-6" value="隐藏层" style="whiteSpace=wrap;html=1;rounded=0;fontSize=18;" vertex="1" parent="1">
          <mxGeometry x="120" y="405" width="120" height="60" as="geometry" />
        </mxCell>
        <mxCell id="0tJtxi1fCtbkk7B83Ru5-11" value="" style="edgeStyle=orthogonalEdgeStyle;rounded=0;orthogonalLoop=1;jettySize=auto;html=1;fontFamily=Times New Roman;fontSize=18;" edge="1" parent="1" source="0tJtxi1fCtbkk7B83Ru5-8" target="0tJtxi1fCtbkk7B83Ru5-10">
          <mxGeometry relative="1" as="geometry" />
        </mxCell>
        <mxCell id="0tJtxi1fCtbkk7B83Ru5-8" value="" style="shape=orEllipse;perimeter=ellipsePerimeter;whiteSpace=wrap;html=1;backgroundOutline=1;" vertex="1" parent="1">
          <mxGeometry x="140" y="500" width="80" height="80" as="geometry" />
        </mxCell>
        <mxCell id="0tJtxi1fCtbkk7B83Ru5-10" value="输出：F(X)+X" style="whiteSpace=wrap;html=1;rounded=0;fontSize=18;" vertex="1" parent="1">
          <mxGeometry x="120" y="615" width="120" height="60" as="geometry" />
        </mxCell>
        <mxCell id="0tJtxi1fCtbkk7B83Ru5-13" value="F(X)" style="rounded=1;whiteSpace=wrap;html=1;fontFamily=Times New Roman;fontSize=18;direction=south;labelBorderColor=#FFFFFF;dashed=1;fillColor=none;strokeColor=#FFFFFF;" vertex="1" parent="1">
          <mxGeometry x="311" y="322" width="60" height="120" as="geometry" />
        </mxCell>
      </root>
    </mxGraphModel>
  </diagram>
</mxfile>
